# xmcd
#
# Track frame offsets:
#	150
#	19786
#	29642
#	40662
#	56284
#	63835
#	83626
#	101575
#	144971
#	169021
#	181785
#	205961
#
# Disc length: 2961 seconds
#
# Revision: 1
# Processed by: cddbd v1.5.1PL0 Copyright (c) Steve Scherf et al.
# Submitted via: EasyCDDAExtractor 5.0.6
#
DISCID=910b8f0c
DTITLE=Seaplane - Technical Difficulties
DYEAR=2005
DGENRE=Indie Rock, Post Rock
TTITLE0=Cyclonic Conditions
TTITLE1=Technical Difficulties
TTITLE2=Not About Dale
TTITLE3=Bingo!
TTITLE4=I'm Awake
TTITLE5=Latino
TTITLE6=Driving The Dynamite Truck
TTITLE7=Red Bones
TTITLE8=Blood Boys
TTITLE9=Base To Flash
TTITLE10=Sleeping Injury
TTITLE11=Untitled
EXTD=
EXTT0=
EXTT1=
EXTT2=
EXTT3=
EXTT4=
EXTT5=
EXTT6=
EXTT7=
EXTT8=
EXTT9=
EXTT10=
EXTT11=
PLAYORDER=
